<svg width="50" height="50" viewBox="0 0 50 50" fill="none" xmlns="http://www.w3.org/2000/svg">
<g clip-path="url(#clip0_24_393)">
<path d="M20.7755 9.31777C20.7755 6.57082 23.0022 4.34239 25.7509 4.34239C28.4996 4.34239 30.7263 6.56908 30.7263 9.31777C30.7263 12.0664 28.4996 14.2931 25.7509 14.2931C23.0022 14.2931 20.7755 12.0647 20.7755 9.31777ZM27.2544 27.0897C28.3227 25.9486 29.8193 25.2254 31.72 24.9306C32.1518 24.8647 32.6096 24.8248 33.083 24.7971C33.2356 24.7919 33.3796 24.7763 33.5322 24.7763H36.4924C34.3195 23.8728 32.7796 21.7224 32.7796 19.2217C32.7796 18.2245 33.0275 17.2794 33.4628 16.4539C31.9194 15.8903 30.4956 15.899 30.4956 15.899H20.5189C19.4038 15.925 18.4673 16.0655 17.6817 16.2979C18.1691 17.165 18.4483 18.1638 18.4483 19.2217C18.4483 21.7224 16.91 23.871 14.7336 24.7763H17.1823C17.2118 24.7728 17.2395 24.7728 17.2707 24.7728C17.4442 24.7728 17.6332 24.7798 17.8239 24.7936C18.2315 24.8231 18.6772 24.8855 19.1385 24.9792C21.6426 25.5046 24.6636 27.1521 24.9983 31.0957L25.0017 31.1841V34.2605H25.6295L25.633 31.1841C25.6295 31.1407 25.5428 28.9175 27.2544 27.0897ZM12.1272 24.2491C14.8706 24.2491 17.1025 22.0172 17.1025 19.2703C17.1025 16.5233 14.8706 14.2949 12.1272 14.2949C9.3802 14.2949 7.15178 16.5233 7.15178 19.2703C7.15178 22.0155 9.38194 24.2491 12.1272 24.2491ZM16.8701 25.8532H6.89512C-0.246254 25.985 0.00173418 31.2344 0.00173418 31.2344L0 43.4708H0.00693674C0.00693674 43.5003 0.00173418 43.5315 0.00173418 43.5575C0.00173418 44.7194 0.946865 45.6576 2.1053 45.6576C3.26547 45.6576 4.20193 44.7194 4.20193 43.5575C4.20193 43.5298 4.19846 43.5003 4.19326 43.4708H4.20193V32.1431H5.51644L5.50604 44.2096L18.1066 44.22L18.0962 32.0876H19.4593V43.4691H19.4662C19.4662 43.4743 19.4662 43.4795 19.4662 43.4864C19.4662 44.6466 20.4044 45.5865 21.5594 45.5865C22.7196 45.5865 23.6595 44.6466 23.6595 43.4864C23.6595 43.4795 23.6595 43.4743 23.6595 43.4691V31.2327C23.1999 25.7717 16.8701 25.8532 16.8701 25.8532ZM38.4729 24.2474C41.2216 24.2474 43.45 22.0189 43.45 19.2703C43.45 16.5216 41.2216 14.2931 38.4729 14.2931C35.7242 14.2931 33.4958 16.5216 33.4958 19.2703C33.4975 22.0189 35.7242 24.2474 38.4729 24.2474ZM43.2176 25.8532H33.2391C26.096 25.985 26.3492 31.2344 26.3492 31.2344L26.3457 43.4708H26.3544C26.3544 43.5003 26.3492 43.5315 26.3492 43.5575C26.3492 44.7194 27.2926 45.6576 28.451 45.6576C29.6112 45.6576 30.5459 44.7194 30.5459 43.5575C30.5459 43.5298 30.5407 43.5003 30.539 43.4708H30.5459V32.1431H31.8639L31.8483 44.2096L44.4489 44.22L44.4385 32.0876H45.8015V43.4691H45.805C45.805 43.4743 45.805 43.4795 45.805 43.4864C45.805 44.6466 46.7449 45.5865 47.9034 45.5865C49.0601 45.5865 50 44.6466 50 43.4864C50 43.4795 50 43.4743 50 43.4691V31.2327C49.5457 25.7717 43.2176 25.8532 43.2176 25.8532Z" fill="#010002"/>
</g>
<defs>
<clipPath id="clip0_24_393">
<rect width="50" height="50" fill="white"/>
</clipPath>
</defs>
</svg>
