<svg width="50" height="50" viewBox="0 0 50 50" fill="none" xmlns="http://www.w3.org/2000/svg">
<g clip-path="url(#clip0_123_198)">
<path d="M42.7169 10.3096C42.7169 6.85396 41.9449 3.44043 40.4853 0.433199L40.2741 0H9.72695L9.51471 0.434196C8.05619 3.44317 7.2832 6.8577 7.2832 10.3106C7.2832 21.0641 14.8745 30.1399 24.2283 30.6087V48.4578H17.4271V50H33.258V48.4578H25.77V30.6077C35.1265 30.1406 42.7169 21.0631 42.7169 10.3096ZM39.3031 1.54323C40.1428 3.38339 40.7073 5.37227 40.9808 7.45481C39.3636 8.06563 34.2838 9.86095 30.6695 9.86269C29.5104 9.86269 28.6074 9.6781 27.9841 9.31615C27.4092 8.98184 27.0988 8.50306 27.0096 7.81029C26.8723 6.73414 26.3258 5.8944 25.3834 5.31497C24.4206 4.72384 23.0094 4.42341 21.1914 4.42341C16.978 4.42341 11.4864 6.02368 9.12212 6.78147C9.42603 4.93159 9.95663 3.1709 10.6975 1.54372H39.3028L39.3031 1.54323ZM25.4783 8.00683C25.6325 9.18287 26.2139 10.0724 27.2079 10.6494C28.0556 11.1424 29.2227 11.393 30.6767 11.393C34.2392 11.392 38.6915 9.95137 41.1325 9.0491C41.1612 9.49675 41.1744 9.91027 41.1744 10.3096C41.1744 20.6655 33.9183 29.0886 25.0003 29.0886C16.0822 29.0886 8.82568 20.6655 8.82568 10.3096C8.82568 9.72219 8.85433 9.10615 8.90863 8.47491C10.7914 7.84815 16.8574 5.95369 21.2196 5.95369C22.7165 5.95369 23.8469 6.18013 24.577 6.62952C25.1136 6.96008 25.4008 7.39702 25.4783 8.00683Z" fill="#010002"/>
</g>
<defs>
<clipPath id="clip0_123_198">
<rect width="50" height="50" fill="white"/>
</clipPath>
</defs>
</svg>
